<svg width="48" height="48" viewBox="0 0 48 48" fill="none" xmlns="http://www.w3.org/2000/svg">
<path d="M31.1553 19.5674C36.6865 19.5674 37.9999 22.2357 38 27.1318V36.2002H32.4004V28.2471C32.4004 25.4588 31.6509 23.8867 29.7441 23.8867C27.0995 23.8867 26.001 25.5812 26.001 28.2461V36.2002H20.4004V19.7812H25.6006V22.1123C26.3497 20.7718 28.2701 19.5674 31.1553 19.5674ZM16.3975 35.9863H10.7979V19.5674H16.3975V35.9863ZM13.5996 11C14.5543 11 15.4703 11.3392 16.1465 11.9414C16.821 12.5436 17.2002 13.3601 17.2002 14.2129C17.2004 14.6352 17.1076 15.0537 16.9268 15.4434C16.7458 15.833 16.4804 16.1867 16.1465 16.4834C15.4694 17.089 14.5522 17.4279 13.5977 17.4258C12.6449 17.4251 11.7307 17.0868 11.0527 16.4844C10.7199 16.1867 10.455 15.8331 10.2744 15.4434C10.0938 15.0536 10.0008 14.6352 10 14.2129C10 13.3599 10.3785 12.5437 11.0547 11.9414C11.7321 11.3382 12.6466 10.9996 13.5996 11Z" fill="#8C8C8C"/>
</svg>
